<svg xmlns="http://www.w3.org/2000/svg" viewBox="0 0 800 800">
  <defs>
    <linearGradient id="sky1" x1="0" y1="0" x2="0" y2="1">
      <stop offset="0%" stop-color="#E7DFD3"/>
      <stop offset="55%" stop-color="#D8A15E"/>
      <stop offset="100%" stop-color="#8B5E3C"/>
    </linearGradient>
  </defs>
  <rect width="800" height="800" fill="url(#sky1)"/>
  <circle cx="400" cy="440" r="110" fill="#FAF7F2" opacity="0.9"/>
  <path d="M0 540 L150 360 L270 480 L410 300 L550 500 L680 380 L800 540 L800 800 L0 800 Z" fill="#2B2B29" opacity="0.7"/>
  <path d="M0 620 L200 500 L360 610 L520 490 L700 610 L800 550 L800 800 L0 800 Z" fill="#2B2B29"/>
  <rect x="60" y="640" width="680" height="20" rx="4" fill="#6B705C" opacity="0.9"/>
  <g opacity="0.9">
    <rect x="90" y="660" width="10" height="90" fill="#4A3B2A"/>
    <rect x="700" y="660" width="10" height="90" fill="#4A3B2A"/>
  </g>
  <rect x="150" y="700" width="500" height="10" fill="#4A3B2A" opacity="0.6"/>
  <text x="400" y="762" text-anchor="middle" font-family="Georgia, serif" font-size="30" fill="#FAF7F2">The Art of Slow Mornings</text>
</svg>
